<?xml version="1.0" encoding="UTF-8" standalone="no"?>
<!-- Created with Inkscape (http://www.inkscape.org/) -->
<svg
   xmlns:svg="http://www.w3.org/2000/svg"
   xmlns="http://www.w3.org/2000/svg"
   version="1.0"
   viewBox="0 0 420 130"
   style="width:100%; height:100%;" preserveAspectRatio="xMidYMid slice"
   id="svg2">
  <defs
     id="defs4">
    <linearGradient
       id="linearGradient5787">
      <stop
         id="stop5789"
         style="stop-color:#000000;stop-opacity:1"
         offset="0" />
      <stop
         id="stop5791"
         style="stop-color:#000000;stop-opacity:0"
         offset="1" />
    </linearGradient>
    <marker
       refX="0"
       refY="0"
       orient="auto"
       id="TriangleOutS"
       style="overflow:visible">
      <path
         d="M 5.77,0 L -2.88,5 L -2.88,-5 L 5.77,0 z"
         transform="scale(0.2,0.2)"
         id="path5458"
         style="fill-rule:evenodd;stroke:#000000;stroke-width:1pt;marker-start:none" />
    </marker>
    <marker
       refX="0"
       refY="0"
       orient="auto"
       id="TriangleInS"
       style="overflow:visible">
      <path
         d="M 5.77,0 L -2.88,5 L -2.88,-5 L 5.77,0 z"
         transform="scale(-0.2,-0.2)"
         id="path5467"
         style="fill-rule:evenodd;stroke:#000000;stroke-width:1pt;marker-start:none" />
    </marker>
    <marker
       refX="0"
       refY="0"
       orient="auto"
       id="TriangleOutM"
       style="overflow:visible">
      <path
         d="M 5.77,0 L -2.88,5 L -2.88,-5 L 5.77,0 z"
         transform="scale(0.4,0.4)"
         id="path5461"
         style="fill-rule:evenodd;stroke:#000000;stroke-width:1pt;marker-start:none" />
    </marker>
    <marker
       refX="0"
       refY="0"
       orient="auto"
       id="TriangleInM"
       style="overflow:visible">
      <path
         d="M 5.77,0 L -2.88,5 L -2.88,-5 L 5.77,0 z"
         transform="scale(-0.4,-0.4)"
         id="path5470"
         style="fill-rule:evenodd;stroke:#000000;stroke-width:1pt;marker-start:none" />
    </marker>
    <marker
       refX="0"
       refY="0"
       orient="auto"
       id="TriangleInMf"
       style="overflow:visible">
      <path
         d="M 5.77,0 L -2.88,5 L -2.88,-5 L 5.77,0 z"
         transform="scale(-0.4,-0.4)"
         id="path6634"
         style="fill:#ff0000;fill-rule:evenodd;stroke:#ff0000;stroke-width:1pt;marker-start:none" />
    </marker>
    <marker
       refX="0"
       refY="0"
       orient="auto"
       id="TriangleOutMe"
       style="overflow:visible">
      <path
         d="M 5.77,0 L -2.88,5 L -2.88,-5 L 5.77,0 z"
         transform="scale(0.4,0.4)"
         id="path6637"
         style="fill:#ff0000;fill-rule:evenodd;stroke:#ff0000;stroke-width:1pt;marker-start:none" />
    </marker>
    <marker
       refX="0"
       refY="0"
       orient="auto"
       id="TriangleOutMU"
       style="overflow:visible">
      <path
         d="M 5.77,0 L -2.88,5 L -2.88,-5 L 5.77,0 z"
         transform="scale(0.4,0.4)"
         id="path7817"
         style="fill:#ff0000;fill-rule:evenodd;stroke:#ff0000;stroke-width:1pt;marker-start:none" />
    </marker>
    <marker
       refX="0"
       refY="0"
       orient="auto"
       id="TriangleInMfK"
       style="overflow:visible">
      <path
         d="M 5.77,0 L -2.88,5 L -2.88,-5 L 5.77,0 z"
         transform="scale(-0.4,-0.4)"
         id="path12474"
         style="fill:#0000ff;fill-rule:evenodd;stroke:#0000ff;stroke-width:1pt;marker-start:none" />
    </marker>
    <marker
       refX="0"
       refY="0"
       orient="auto"
       id="TriangleOutMew"
       style="overflow:visible">
      <path
         d="M 5.77,0 L -2.88,5 L -2.88,-5 L 5.77,0 z"
         transform="scale(0.4,0.4)"
         id="path12477"
         style="fill:#0000ff;fill-rule:evenodd;stroke:#0000ff;stroke-width:1pt;marker-start:none" />
    </marker>
    <marker
       refX="0"
       refY="0"
       orient="auto"
       id="TriangleOutMUv"
       style="overflow:visible">
      <path
         d="M 5.77,0 L -2.88,5 L -2.88,-5 L 5.77,0 z"
         transform="scale(0.4,0.4)"
         id="path13704"
         style="fill:#0000ff;fill-rule:evenodd;stroke:#0000ff;stroke-width:1pt;marker-start:none" />
    </marker>
    <marker
       refX="0"
       refY="0"
       orient="auto"
       id="TriangleInMfR"
       style="overflow:visible">
      <path
         d="M 5.77,0 L -2.88,5 L -2.88,-5 L 5.77,0 z"
         transform="scale(-0.4,-0.4)"
         id="path14937"
         style="fill:#008000;fill-rule:evenodd;stroke:#008000;stroke-width:1pt;marker-start:none" />
    </marker>
    <marker
       refX="0"
       refY="0"
       orient="auto"
       id="TriangleOutMey"
       style="overflow:visible">
      <path
         d="M 5.77,0 L -2.88,5 L -2.88,-5 L 5.77,0 z"
         transform="scale(0.4,0.4)"
         id="path14940"
         style="fill:#008000;fill-rule:evenodd;stroke:#008000;stroke-width:1pt;marker-start:none" />
    </marker>
    <marker
       refX="0"
       refY="0"
       orient="auto"
       id="TriangleOutMUj"
       style="overflow:visible">
      <path
         d="M 5.77,0 L -2.88,5 L -2.88,-5 L 5.77,0 z"
         transform="scale(0.4,0.4)"
         id="path16177"
         style="fill:#008000;fill-rule:evenodd;stroke:#008000;stroke-width:1pt;marker-start:none" />
    </marker>
    <marker
       refX="0"
       refY="0"
       orient="auto"
       id="Arrow2Lend"
       style="overflow:visible">
      <path
         d="M 8.7185878,4.0337352 L -2.2072895,0.016013256 L 8.7185884,-4.0017078 C 6.97309,-1.6296469 6.9831476,1.6157441 8.7185878,4.0337352 z"
         transform="matrix(-1.1,0,0,-1.1,-1.1,0)"
         id="path10274"
         style="font-size:12px;fill-rule:evenodd;stroke-width:0.625;stroke-linejoin:round" />
    </marker>
    <marker
       refX="0"
       refY="0"
       orient="auto"
       id="Arrow2Lstart"
       style="overflow:visible">
      <path
         d="M 8.7185878,4.0337352 L -2.2072895,0.016013256 L 8.7185884,-4.0017078 C 6.97309,-1.6296469 6.9831476,1.6157441 8.7185878,4.0337352 z"
         transform="matrix(1.1,0,0,1.1,1.1,0)"
         id="path3411"
         style="font-size:12px;fill-rule:evenodd;stroke-width:0.625;stroke-linejoin:round" />
    </marker>
    <marker
       refX="0"
       refY="0"
       orient="auto"
       id="Arrow2Send"
       style="overflow:visible">
      <path
         d="M 8.7185878,4.0337352 L -2.2072895,0.016013256 L 8.7185884,-4.0017078 C 6.97309,-1.6296469 6.9831476,1.6157441 8.7185878,4.0337352 z"
         transform="matrix(-0.3,0,0,-0.3,0.69,0)"
         id="path17192"
         style="font-size:12px;fill-rule:evenodd;stroke-width:0.625;stroke-linejoin:round" />
    </marker>
    <marker
       refX="0"
       refY="0"
       orient="auto"
       id="Arrow2Mend"
       style="overflow:visible">
      <path
         d="M 8.7185878,4.0337352 L -2.2072895,0.016013256 L 8.7185884,-4.0017078 C 6.97309,-1.6296469 6.9831476,1.6157441 8.7185878,4.0337352 z"
         transform="scale(-0.6,-0.6)"
         id="path17198"
         style="font-size:12px;fill-rule:evenodd;stroke-width:0.625;stroke-linejoin:round" />
    </marker>
    <marker
       refX="0"
       refY="0"
       orient="auto"
       id="Arrow2Mstart"
       style="overflow:visible">
      <path
         d="M 8.7185878,4.0337352 L -2.2072895,0.016013256 L 8.7185884,-4.0017078 C 6.97309,-1.6296469 6.9831476,1.6157441 8.7185878,4.0337352 z"
         transform="scale(0.6,0.6)"
         id="path17201"
         style="font-size:12px;fill-rule:evenodd;stroke-width:0.625;stroke-linejoin:round" />
    </marker>
  </defs>
  <rect
     width="420"
     height="130"
     x="0"
     y="0"
     id="rect3175"
     style="fill:#f9f9f9;fill-opacity:1;stroke:none;stroke-width:0.5;stroke-linecap:butt;stroke-linejoin:miter;stroke-miterlimit:4;stroke-dasharray:none;stroke-dashoffset:0;stroke-opacity:1" />
  <path
     d="M 395.00889,80.55554 C 355.00889,70.55554 340.00889,107.55554 305.00889,95.55554"
     id="path3426"
     style="fill:none;fill-rule:evenodd;stroke:#0000ff;stroke-width:1px;stroke-linecap:butt;stroke-linejoin:miter;stroke-opacity:1" />
  <path
     d="M 305.00889,95.55554 C 275.09545,85.29951 275.09545,45.81158 305.00889,35.55554 C 340.00889,23.55554 355.00889,60.55554 395.00889,50.55554"
     id="path3397"
     style="fill:none;fill-rule:evenodd;stroke:#00ff00;stroke-width:1px;stroke-linecap:butt;stroke-linejoin:miter;stroke-opacity:1" />
  <path
     d="M 395,50 L 395,81"
     id="path3424"
     style="fill:none;fill-rule:evenodd;stroke:#ff00ff;stroke-width:1px;stroke-linecap:butt;stroke-linejoin:miter;stroke-opacity:1" />
  <rect
     width="5.1111112"
     height="5.1111112"
     x="392.43555"
     y="78"
     id="rect3420"
     style="fill:#000000;fill-opacity:1;stroke:#000000;stroke-width:1;stroke-miterlimit:4;stroke-dasharray:none;stroke-dashoffset:0;stroke-opacity:1" />
  <rect
     width="5.1111112"
     height="5.1111112"
     x="392.41714"
     y="48"
     id="rect3422"
     style="fill:#000000;fill-opacity:1;stroke:#000000;stroke-width:1;stroke-miterlimit:4;stroke-dasharray:none;stroke-dashoffset:0;stroke-opacity:1" />
  <path
     d="M 35,45 L 100,23 L 115,60 L 215,35 L 215,95 L 115,70 L 100,107 L 35,85 L 35,45"
     id="path3357"
     style="fill:none;fill-rule:evenodd;stroke:#000000;stroke-width:1;stroke-linecap:butt;stroke-linejoin:miter;stroke-miterlimit:4;stroke-dasharray:2, 1;stroke-dashoffset:0;stroke-opacity:1" />
  <rect
     width="0"
     height="2.0203052"
     x="200"
     y="135.99533"
     id="rect2168"
     style="fill:#32d9f5;fill-opacity:1;stroke:#000000;stroke-width:1;stroke-linecap:butt;stroke-linejoin:miter;stroke-miterlimit:4;stroke-dasharray:none;stroke-dashoffset:0;stroke-opacity:1" />
  <rect
     width="5.1111112"
     height="5.1111112"
     x="62.427402"
     y="92.430954"
     id="rect3139"
     style="fill:#000000;fill-opacity:1;stroke:#000000;stroke-width:1;stroke-miterlimit:4;stroke-dasharray:none;stroke-dashoffset:0;stroke-opacity:1" />
  <path
     d="M 280,752.36218 A 5,5 0 1 1 270,752.36218 A 5,5 0 1 1 280,752.36218 z"
     transform="matrix(0.5111107,0,0,0.511108,-25.543151,-324.53833)"
     id="path3147"
     style="fill:#ffffff;fill-opacity:1;stroke:#000000;stroke-width:1.95652843;stroke-miterlimit:4;stroke-dasharray:none;stroke-dashoffset:0;stroke-opacity:1" />
  <path
     d="M 155,50 C 215,35 215,95 155,80 C 115,70 100,107 65,95 C 35.086563,84.743964 35.086563,45.256036 65,35 C 100,23 115,60 155,50 z"
     id="path3323"
     style="fill:none;fill-rule:evenodd;stroke:#000000;stroke-width:1px;stroke-linecap:butt;stroke-linejoin:miter;stroke-opacity:1" />
  <path
     d="M 280,752.36218 A 5,5 0 1 1 270,752.36218 A 5,5 0 1 1 280,752.36218 z"
     transform="matrix(0.5111107,0,0,0.511108,-75.555443,-349.56886)"
     id="path3335"
     style="fill:#000000;fill-opacity:1;stroke:#000000;stroke-width:1.95652843;stroke-miterlimit:4;stroke-dasharray:none;stroke-dashoffset:0;stroke-opacity:1" />
  <path
     d="M 280,752.36218 A 5,5 0 1 1 270,752.36218 A 5,5 0 1 1 280,752.36218 z"
     transform="matrix(0.5111107,0,0,0.511108,14.444557,-334.55105)"
     id="path3337"
     style="fill:#000000;fill-opacity:1;stroke:#000000;stroke-width:1.95652843;stroke-miterlimit:4;stroke-dasharray:none;stroke-dashoffset:0;stroke-opacity:1" />
  <path
     d="M 280,752.36218 A 5,5 0 1 1 270,752.36218 A 5,5 0 1 1 280,752.36218 z"
     transform="matrix(0.5111107,0,0,0.511108,14.444557,-304.55105)"
     id="path3339"
     style="fill:#000000;fill-opacity:1;stroke:#000000;stroke-width:1.95652843;stroke-miterlimit:4;stroke-dasharray:none;stroke-dashoffset:0;stroke-opacity:1" />
  <path
     d="M 280,752.36218 A 5,5 0 1 1 270,752.36218 A 5,5 0 1 1 280,752.36218 z"
     transform="matrix(0.5111107,0,0,0.511108,-25.555443,-314.46022)"
     id="path3341"
     style="fill:#ffffff;fill-opacity:1;stroke:#000000;stroke-width:1.95652843;stroke-miterlimit:4;stroke-dasharray:none;stroke-dashoffset:0;stroke-opacity:1" />
  <path
     d="M 280,752.36218 A 5,5 0 1 1 270,752.36218 A 5,5 0 1 1 280,752.36218 z"
     transform="matrix(0.5111107,0,0,0.511108,-105.55544,-299.4638)"
     id="path3343"
     style="fill:#ffffff;fill-opacity:1;stroke:#000000;stroke-width:1.95652843;stroke-miterlimit:4;stroke-dasharray:none;stroke-dashoffset:0;stroke-opacity:1" />
  <path
     d="M 280,752.36218 A 5,5 0 1 1 270,752.36218 A 5,5 0 1 1 280,752.36218 z"
     transform="matrix(0.5111107,0,0,0.511108,-105.55544,-339.4602)"
     id="path3345"
     style="fill:#ffffff;fill-opacity:1;stroke:#000000;stroke-width:1.95652843;stroke-miterlimit:4;stroke-dasharray:none;stroke-dashoffset:0;stroke-opacity:1" />
  <path
     d="M 280,752.36218 A 5,5 0 1 1 270,752.36218 A 5,5 0 1 1 280,752.36218 z"
     transform="matrix(0.5111107,0,0,0.511108,74.444558,-349.42286)"
     id="path3347"
     style="fill:#ffffff;fill-opacity:1;stroke:#000000;stroke-width:1.95652843;stroke-miterlimit:4;stroke-dasharray:none;stroke-dashoffset:0;stroke-opacity:1" />
  <path
     d="M 280,752.36218 A 5,5 0 1 1 270,752.36218 A 5,5 0 1 1 280,752.36218 z"
     transform="matrix(0.5111107,0,0,0.511108,74.444558,-289.49075)"
     id="path3349"
     style="fill:#ffffff;fill-opacity:1;stroke:#000000;stroke-width:1.95652843;stroke-miterlimit:4;stroke-dasharray:none;stroke-dashoffset:0;stroke-opacity:1" />
  <path
     d="M 280,752.36218 A 5,5 0 1 1 270,752.36218 A 5,5 0 1 1 280,752.36218 z"
     transform="matrix(0.5111107,0,0,0.511108,-40.511428,-361.53833)"
     id="path3351"
     style="fill:#ffffff;fill-opacity:1;stroke:#000000;stroke-width:1.95652843;stroke-miterlimit:4;stroke-dasharray:none;stroke-dashoffset:0;stroke-opacity:1" />
  <path
     d="M 280,752.36218 A 5,5 0 1 1 270,752.36218 A 5,5 0 1 1 280,752.36218 z"
     transform="matrix(0.5111107,0,0,0.511108,-40.564327,-277.53833)"
     id="path3353"
     style="fill:#ffffff;fill-opacity:1;stroke:#000000;stroke-width:1.95652843;stroke-miterlimit:4;stroke-dasharray:none;stroke-dashoffset:0;stroke-opacity:1" />
  <path
     d="M 395,80.671635 L 355.00889,70.55554 L 340.00889,107.55554 L 275.00889,85.55554 L 275.00889,45.55554 M 275.00889,45.55554 L 340.00889,23.55554 L 355.00889,60.55554 L 395,50.419951"
     id="path3389"
     style="fill:none;fill-rule:evenodd;stroke:#000000;stroke-width:1;stroke-linecap:butt;stroke-linejoin:miter;stroke-miterlimit:4;stroke-dasharray:2, 1;stroke-dashoffset:0;stroke-opacity:1" />
  <rect
     width="5.1111112"
     height="5.1111112"
     x="302.43628"
     y="92.986496"
     id="rect3391"
     style="fill:#000000;fill-opacity:1;stroke:#000000;stroke-width:1;stroke-miterlimit:4;stroke-dasharray:none;stroke-dashoffset:0;stroke-opacity:1" />
  <path
     d="M 280,752.36218 A 5,5 0 1 1 270,752.36218 A 5,5 0 1 1 280,752.36218 z"
     transform="matrix(0.5111107,0,0,0.511108,214.46574,-323.98279)"
     id="path3393"
     style="fill:#ffffff;fill-opacity:1;stroke:#000000;stroke-width:1.95652843;stroke-miterlimit:4;stroke-dasharray:none;stroke-dashoffset:0;stroke-opacity:1" />
  <path
     d="M 280,752.36218 A 5,5 0 1 1 270,752.36218 A 5,5 0 1 1 280,752.36218 z"
     transform="matrix(0.5111107,0,0,0.511108,164.45345,-349.01332)"
     id="path3399"
     style="fill:#000000;fill-opacity:1;stroke:#000000;stroke-width:1.95652843;stroke-miterlimit:4;stroke-dasharray:none;stroke-dashoffset:0;stroke-opacity:1" />
  <path
     d="M 280,752.36218 A 5,5 0 1 1 270,752.36218 A 5,5 0 1 1 280,752.36218 z"
     transform="matrix(0.5111107,0,0,0.511108,214.45345,-313.90468)"
     id="path3405"
     style="fill:#ffffff;fill-opacity:1;stroke:#000000;stroke-width:1.95652843;stroke-miterlimit:4;stroke-dasharray:none;stroke-dashoffset:0;stroke-opacity:1" />
  <path
     d="M 280,752.36218 A 5,5 0 1 1 270,752.36218 A 5,5 0 1 1 280,752.36218 z"
     transform="matrix(0.5111107,0,0,0.511108,134.45345,-298.90826)"
     id="path3407"
     style="fill:#ffffff;fill-opacity:1;stroke:#000000;stroke-width:1.95652843;stroke-miterlimit:4;stroke-dasharray:none;stroke-dashoffset:0;stroke-opacity:1" />
  <path
     d="M 280,752.36218 A 5,5 0 1 1 270,752.36218 A 5,5 0 1 1 280,752.36218 z"
     transform="matrix(0.5111107,0,0,0.511108,134.45345,-338.90466)"
     id="path3409"
     style="fill:#ffffff;fill-opacity:1;stroke:#000000;stroke-width:1.95652843;stroke-miterlimit:4;stroke-dasharray:none;stroke-dashoffset:0;stroke-opacity:1" />
  <path
     d="M 280,752.36218 A 5,5 0 1 1 270,752.36218 A 5,5 0 1 1 280,752.36218 z"
     transform="matrix(0.5111107,0,0,0.511108,199.49746,-360.98279)"
     id="path3416"
     style="fill:#ffffff;fill-opacity:1;stroke:#000000;stroke-width:1.95652843;stroke-miterlimit:4;stroke-dasharray:none;stroke-dashoffset:0;stroke-opacity:1" />
  <path
     d="M 280,752.36218 A 5,5 0 1 1 270,752.36218 A 5,5 0 1 1 280,752.36218 z"
     transform="matrix(0.5111107,0,0,0.511108,199.44456,-276.98279)"
     id="path3418"
     style="fill:#ffffff;fill-opacity:1;stroke:#000000;stroke-width:1.95652843;stroke-miterlimit:4;stroke-dasharray:none;stroke-dashoffset:0;stroke-opacity:1" />
  <rect
     width="110"
     height="110"
     x="270.00888"
     y="10.555543"
     id="rect3395"
     style="fill:none;fill-opacity:1;stroke:#ff0000;stroke-width:1;stroke-linecap:butt;stroke-linejoin:round;stroke-miterlimit:4;stroke-dasharray:none;stroke-dashoffset:0;stroke-opacity:1" />
  <rect
     width="110"
     height="110"
     x="30"
     y="10"
     id="rect2443"
     style="fill:none;fill-opacity:1;stroke:#ff0000;stroke-width:1;stroke-linecap:butt;stroke-linejoin:round;stroke-miterlimit:4;stroke-dasharray:none;stroke-dashoffset:0;stroke-opacity:1" />
  <text
     x="45"
     y="110"
     id="text3428"
     xml:space="preserve"
     style="font-size:12px;font-style:normal;font-weight:normal;fill:#000000;fill-opacity:1;stroke:none;stroke-width:1px;stroke-linecap:butt;stroke-linejoin:miter;stroke-opacity:1;font-family:Bitstream Vera Sans"><tspan
       x="45"
       y="110"
       id="tspan3430">N1</tspan></text>
  <text
     x="285"
     y="110"
     id="text3432"
     xml:space="preserve"
     style="font-size:12px;font-style:normal;font-weight:normal;fill:#000000;fill-opacity:1;stroke:none;stroke-width:1px;stroke-linecap:butt;stroke-linejoin:miter;stroke-opacity:1;font-family:Bitstream Vera Sans"><tspan
       x="285"
       y="110"
       id="tspan3434">N1</tspan></text>
  <text
     x="395"
     y="95"
     id="text3436"
     xml:space="preserve"
     style="font-size:12px;font-style:normal;font-weight:normal;fill:#000000;fill-opacity:1;stroke:none;stroke-width:1px;stroke-linecap:butt;stroke-linejoin:miter;stroke-opacity:1;font-family:Bitstream Vera Sans"><tspan
       x="395"
       y="95"
       id="tspan3438">N2</tspan></text>
  <text
     x="395"
     y="45"
     id="text3440"
     xml:space="preserve"
     style="font-size:12px;font-style:normal;font-weight:normal;fill:#000000;fill-opacity:1;stroke:none;stroke-width:1px;stroke-linecap:butt;stroke-linejoin:miter;stroke-opacity:1;font-family:Bitstream Vera Sans"><tspan
       x="395"
       y="45"
       id="tspan3442">N3</tspan></text>
  <text
     x="33.10033"
     y="20"
     id="text3444"
     xml:space="preserve"
     style="font-size:12px;font-style:normal;font-weight:normal;fill:#ff0000;fill-opacity:1;stroke:none;stroke-width:1px;stroke-linecap:butt;stroke-linejoin:miter;stroke-opacity:1;font-family:Bitstream Vera Sans"><tspan
       x="33.10033"
       y="20"
       id="tspan3446"
       style="font-size:10px;fill:#ff0000">clip area</tspan></text>
</svg>
