<?xml version="1.0" encoding="UTF-8" standalone="no"?>
<!-- Created with Inkscape (http://www.inkscape.org/) -->
<svg
   xmlns:svg="http://www.w3.org/2000/svg"
   xmlns="http://www.w3.org/2000/svg"
   version="1.0"
   viewBox="0 0 420 130"
   style="width:100%; height:100%;" preserveAspectRatio="xMidYMid slice"
   id="svg2">
  <defs
     id="defs4">
    <linearGradient
       id="linearGradient5787">
      <stop
         id="stop5789"
         style="stop-color:#000000;stop-opacity:1"
         offset="0" />
      <stop
         id="stop5791"
         style="stop-color:#000000;stop-opacity:0"
         offset="1" />
    </linearGradient>
    <marker
       refX="0"
       refY="0"
       orient="auto"
       id="TriangleOutS"
       style="overflow:visible">
      <path
         d="M 5.77,0 L -2.88,5 L -2.88,-5 L 5.77,0 z"
         transform="scale(0.2,0.2)"
         id="path5458"
         style="fill-rule:evenodd;stroke:#000000;stroke-width:1pt;marker-start:none" />
    </marker>
    <marker
       refX="0"
       refY="0"
       orient="auto"
       id="TriangleInS"
       style="overflow:visible">
      <path
         d="M 5.77,0 L -2.88,5 L -2.88,-5 L 5.77,0 z"
         transform="scale(-0.2,-0.2)"
         id="path5467"
         style="fill-rule:evenodd;stroke:#000000;stroke-width:1pt;marker-start:none" />
    </marker>
    <marker
       refX="0"
       refY="0"
       orient="auto"
       id="TriangleOutM"
       style="overflow:visible">
      <path
         d="M 5.77,0 L -2.88,5 L -2.88,-5 L 5.77,0 z"
         transform="scale(0.4,0.4)"
         id="path5461"
         style="fill-rule:evenodd;stroke:#000000;stroke-width:1pt;marker-start:none" />
    </marker>
    <marker
       refX="0"
       refY="0"
       orient="auto"
       id="TriangleInM"
       style="overflow:visible">
      <path
         d="M 5.77,0 L -2.88,5 L -2.88,-5 L 5.77,0 z"
         transform="scale(-0.4,-0.4)"
         id="path5470"
         style="fill-rule:evenodd;stroke:#000000;stroke-width:1pt;marker-start:none" />
    </marker>
    <marker
       refX="0"
       refY="0"
       orient="auto"
       id="TriangleInMf"
       style="overflow:visible">
      <path
         d="M 5.77,0 L -2.88,5 L -2.88,-5 L 5.77,0 z"
         transform="scale(-0.4,-0.4)"
         id="path6634"
         style="fill:#ff0000;fill-rule:evenodd;stroke:#ff0000;stroke-width:1pt;marker-start:none" />
    </marker>
    <marker
       refX="0"
       refY="0"
       orient="auto"
       id="TriangleOutMe"
       style="overflow:visible">
      <path
         d="M 5.77,0 L -2.88,5 L -2.88,-5 L 5.77,0 z"
         transform="scale(0.4,0.4)"
         id="path6637"
         style="fill:#ff0000;fill-rule:evenodd;stroke:#ff0000;stroke-width:1pt;marker-start:none" />
    </marker>
    <marker
       refX="0"
       refY="0"
       orient="auto"
       id="TriangleOutMU"
       style="overflow:visible">
      <path
         d="M 5.77,0 L -2.88,5 L -2.88,-5 L 5.77,0 z"
         transform="scale(0.4,0.4)"
         id="path7817"
         style="fill:#ff0000;fill-rule:evenodd;stroke:#ff0000;stroke-width:1pt;marker-start:none" />
    </marker>
    <marker
       refX="0"
       refY="0"
       orient="auto"
       id="TriangleInMfK"
       style="overflow:visible">
      <path
         d="M 5.77,0 L -2.88,5 L -2.88,-5 L 5.77,0 z"
         transform="scale(-0.4,-0.4)"
         id="path12474"
         style="fill:#0000ff;fill-rule:evenodd;stroke:#0000ff;stroke-width:1pt;marker-start:none" />
    </marker>
    <marker
       refX="0"
       refY="0"
       orient="auto"
       id="TriangleOutMew"
       style="overflow:visible">
      <path
         d="M 5.77,0 L -2.88,5 L -2.88,-5 L 5.77,0 z"
         transform="scale(0.4,0.4)"
         id="path12477"
         style="fill:#0000ff;fill-rule:evenodd;stroke:#0000ff;stroke-width:1pt;marker-start:none" />
    </marker>
    <marker
       refX="0"
       refY="0"
       orient="auto"
       id="TriangleOutMUv"
       style="overflow:visible">
      <path
         d="M 5.77,0 L -2.88,5 L -2.88,-5 L 5.77,0 z"
         transform="scale(0.4,0.4)"
         id="path13704"
         style="fill:#0000ff;fill-rule:evenodd;stroke:#0000ff;stroke-width:1pt;marker-start:none" />
    </marker>
    <marker
       refX="0"
       refY="0"
       orient="auto"
       id="TriangleInMfR"
       style="overflow:visible">
      <path
         d="M 5.77,0 L -2.88,5 L -2.88,-5 L 5.77,0 z"
         transform="scale(-0.4,-0.4)"
         id="path14937"
         style="fill:#008000;fill-rule:evenodd;stroke:#008000;stroke-width:1pt;marker-start:none" />
    </marker>
    <marker
       refX="0"
       refY="0"
       orient="auto"
       id="TriangleOutMey"
       style="overflow:visible">
      <path
         d="M 5.77,0 L -2.88,5 L -2.88,-5 L 5.77,0 z"
         transform="scale(0.4,0.4)"
         id="path14940"
         style="fill:#008000;fill-rule:evenodd;stroke:#008000;stroke-width:1pt;marker-start:none" />
    </marker>
    <marker
       refX="0"
       refY="0"
       orient="auto"
       id="TriangleOutMUj"
       style="overflow:visible">
      <path
         d="M 5.77,0 L -2.88,5 L -2.88,-5 L 5.77,0 z"
         transform="scale(0.4,0.4)"
         id="path16177"
         style="fill:#008000;fill-rule:evenodd;stroke:#008000;stroke-width:1pt;marker-start:none" />
    </marker>
    <marker
       refX="0"
       refY="0"
       orient="auto"
       id="Arrow2Lend"
       style="overflow:visible">
      <path
         d="M 8.7185878,4.0337352 L -2.2072895,0.016013256 L 8.7185884,-4.0017078 C 6.97309,-1.6296469 6.9831476,1.6157441 8.7185878,4.0337352 z"
         transform="matrix(-1.1,0,0,-1.1,-1.1,0)"
         id="path10274"
         style="font-size:12px;fill-rule:evenodd;stroke-width:0.625;stroke-linejoin:round" />
    </marker>
    <marker
       refX="0"
       refY="0"
       orient="auto"
       id="Arrow2Lstart"
       style="overflow:visible">
      <path
         d="M 8.7185878,4.0337352 L -2.2072895,0.016013256 L 8.7185884,-4.0017078 C 6.97309,-1.6296469 6.9831476,1.6157441 8.7185878,4.0337352 z"
         transform="matrix(1.1,0,0,1.1,1.1,0)"
         id="path3411"
         style="font-size:12px;fill-rule:evenodd;stroke-width:0.625;stroke-linejoin:round" />
    </marker>
    <marker
       refX="0"
       refY="0"
       orient="auto"
       id="Arrow2Send"
       style="overflow:visible">
      <path
         d="M 8.7185878,4.0337352 L -2.2072895,0.016013256 L 8.7185884,-4.0017078 C 6.97309,-1.6296469 6.9831476,1.6157441 8.7185878,4.0337352 z"
         transform="matrix(-0.3,0,0,-0.3,0.69,0)"
         id="path17192"
         style="font-size:12px;fill-rule:evenodd;stroke-width:0.625;stroke-linejoin:round" />
    </marker>
    <marker
       refX="0"
       refY="0"
       orient="auto"
       id="Arrow2Mend"
       style="overflow:visible">
      <path
         d="M 8.7185878,4.0337352 L -2.2072895,0.016013256 L 8.7185884,-4.0017078 C 6.97309,-1.6296469 6.9831476,1.6157441 8.7185878,4.0337352 z"
         transform="scale(-0.6,-0.6)"
         id="path17198"
         style="font-size:12px;fill-rule:evenodd;stroke-width:0.625;stroke-linejoin:round" />
    </marker>
    <marker
       refX="0"
       refY="0"
       orient="auto"
       id="Arrow2Mstart"
       style="overflow:visible">
      <path
         d="M 8.7185878,4.0337352 L -2.2072895,0.016013256 L 8.7185884,-4.0017078 C 6.97309,-1.6296469 6.9831476,1.6157441 8.7185878,4.0337352 z"
         transform="scale(0.6,0.6)"
         id="path17201"
         style="font-size:12px;fill-rule:evenodd;stroke-width:0.625;stroke-linejoin:round" />
    </marker>
  </defs>
  <rect
     width="420"
     height="130"
     x="0"
     y="0"
     id="rect3175"
     style="fill:#f9f9f9;fill-opacity:1;stroke:none;stroke-width:0.5;stroke-linecap:butt;stroke-linejoin:miter;stroke-miterlimit:4;stroke-dasharray:none;stroke-dashoffset:0;stroke-opacity:1" />
  <path
     d="M 132.54363,87.489169 L 132.54359,112.52508 L 52.54934,112.4889 L 52.53495,47.497944 L 92.54112,47.534128"
     id="path3173"
     style="fill:none;fill-rule:evenodd;stroke:#0000ff;stroke-width:1;stroke-linecap:butt;stroke-linejoin:miter;stroke-miterlimit:4;stroke-dasharray:2, 1;stroke-dashoffset:0;stroke-opacity:1" />
  <path
     d="M 92.51809,47.438734 L 92.47492,22.525082 L 172.51809,22.525082 L 172.56826,87.525082 L 133,87.525082"
     id="path3163"
     style="fill:none;fill-rule:evenodd;stroke:#00ff00;stroke-width:1px;stroke-linecap:butt;stroke-linejoin:miter;stroke-opacity:1" />
  <path
     d="M 92,47.481908 L 132.52508,47.525082 L 132.56826,88"
     id="path3161"
     style="fill:none;fill-rule:evenodd;stroke:#ff0000;stroke-width:1px;stroke-linecap:butt;stroke-linejoin:miter;stroke-opacity:1" />
  <path
     d="M 132.56127,87.481908 C 132.56127,106 124,112.49712 95,112.48191 C 52.56125,112.45965 52.52809,47.545338 92.48191,47.518092 C 96.00026,47.515695 95,47.554276 95,47.554276"
     id="path3169"
     style="fill:none;fill-rule:evenodd;stroke:#0000ff;stroke-width:1px;stroke-linecap:butt;stroke-linejoin:miter;stroke-opacity:1" />
  <rect
     width="0"
     height="2.0203052"
     x="200"
     y="135.99533"
     id="rect2168"
     style="fill:#32d9f5;fill-opacity:1;stroke:#000000;stroke-width:1;stroke-linecap:butt;stroke-linejoin:miter;stroke-miterlimit:4;stroke-dasharray:none;stroke-dashoffset:0;stroke-opacity:1" />
  <text
     x="306.91602"
     y="35"
     id="text2174"
     xml:space="preserve"
     style="font-size:12px;font-style:normal;font-weight:normal;fill:#000000;fill-opacity:1;stroke:none;stroke-width:1px;stroke-linecap:butt;stroke-linejoin:miter;stroke-opacity:1;font-family:Bitstream Vera Sans"><tspan
       x="306.91602"
       y="35"
       id="tspan2176">Node</tspan></text>
  <text
     x="307.41992"
     y="55"
     id="text3237"
     xml:space="preserve"
     style="font-size:12px;font-style:normal;font-weight:normal;fill:#000000;fill-opacity:1;stroke:none;stroke-width:1px;stroke-linecap:butt;stroke-linejoin:miter;stroke-opacity:1;font-family:Bitstream Vera Sans"><tspan
       x="307.41992"
       y="55"
       id="tspan3239">Curve</tspan></text>
  <text
     x="308"
     y="75"
     id="text3241"
     xml:space="preserve"
     style="font-size:12px;font-style:normal;font-weight:normal;fill:#000000;fill-opacity:1;stroke:none;stroke-width:1px;stroke-linecap:butt;stroke-linejoin:miter;stroke-opacity:1;font-family:Bitstream Vera Sans"><tspan
       x="308"
       y="75"
       id="tspan3243">Area</tspan></text>
  <rect
     width="5.1111112"
     height="5.1111112"
     x="89.888885"
     y="45"
     id="rect5014"
     style="fill:#000000;fill-opacity:1;stroke:#000000;stroke-width:1;stroke-miterlimit:4;stroke-dasharray:none;stroke-dashoffset:0;stroke-opacity:1" />
  <text
     x="349.82422"
     y="95"
     id="text3077"
     xml:space="preserve"
     style="font-size:12px;font-style:normal;font-weight:normal;text-align:center;text-anchor:middle;fill:#000000;fill-opacity:1;stroke:none;stroke-width:1px;stroke-linecap:butt;stroke-linejoin:miter;stroke-opacity:1;font-family:Bitstream Vera Sans"><tspan
       x="349.82422"
       y="95"
       id="tspan3081">regular vertex</tspan></text>
  <text
     x="349.5957"
     y="115"
     id="text3083"
     xml:space="preserve"
     style="font-size:12px;font-style:normal;font-weight:normal;text-align:center;text-anchor:middle;fill:#000000;fill-opacity:1;stroke:none;stroke-width:1px;stroke-linecap:butt;stroke-linejoin:miter;stroke-opacity:1;font-family:Bitstream Vera Sans"><tspan
       x="349.5957"
       y="115"
       id="tspan3091">control vertex</tspan></text>
  <text
     x="95"
     y="80"
     id="text3105"
     xml:space="preserve"
     style="font-size:12px;font-style:normal;font-weight:normal;fill:#000000;fill-opacity:1;stroke:none;stroke-width:1px;stroke-linecap:butt;stroke-linejoin:miter;stroke-opacity:1;font-family:Bitstream Vera Sans"><tspan
       x="95"
       y="80"
       id="tspan3109">A1</tspan></text>
  <text
     x="110"
     y="40"
     id="text3113"
     xml:space="preserve"
     style="font-size:12px;font-style:normal;font-weight:normal;fill:#000000;fill-opacity:1;stroke:none;stroke-width:1px;stroke-linecap:butt;stroke-linejoin:miter;stroke-opacity:1;font-family:Bitstream Vera Sans"><tspan
       x="110"
       y="40"
       id="tspan3115">A2</tspan></text>
  <text
     x="73"
     y="43"
     id="text3117"
     xml:space="preserve"
     style="font-size:12px;font-style:normal;font-weight:normal;fill:#000000;fill-opacity:1;stroke:none;stroke-width:1px;stroke-linecap:butt;stroke-linejoin:miter;stroke-opacity:1;font-family:Bitstream Vera Sans"><tspan
       x="73"
       y="43"
       id="tspan3119">N1</tspan><tspan
       x="73"
       y="58"
       id="tspan3121" /></text>
  <text
     x="135"
     y="100"
     id="text3123"
     xml:space="preserve"
     style="font-size:12px;font-style:normal;font-weight:normal;fill:#000000;fill-opacity:1;stroke:none;stroke-width:1px;stroke-linecap:butt;stroke-linejoin:miter;stroke-opacity:1;font-family:Bitstream Vera Sans"><tspan
       x="135"
       y="100"
       id="tspan3125">N2</tspan></text>
  <text
     x="175"
     y="60"
     id="text3127"
     xml:space="preserve"
     style="font-size:12px;font-style:normal;font-weight:normal;fill:#00ff00;fill-opacity:1;stroke:none;stroke-width:1px;stroke-linecap:butt;stroke-linejoin:miter;stroke-opacity:1;font-family:Bitstream Vera Sans"><tspan
       x="175"
       y="60"
       id="tspan3129">C1</tspan></text>
  <text
     x="135"
     y="70"
     id="text3131"
     xml:space="preserve"
     style="font-size:12px;font-style:normal;font-weight:normal;fill:#ff0000;fill-opacity:1;stroke:none;stroke-width:1px;stroke-linecap:butt;stroke-linejoin:miter;stroke-opacity:1;font-family:Bitstream Vera Sans"><tspan
       x="135"
       y="70"
       id="tspan3133">C2</tspan></text>
  <text
     x="65"
     y="85"
     id="text3135"
     xml:space="preserve"
     style="font-size:12px;font-style:normal;font-weight:normal;fill:#0000ff;fill-opacity:1;stroke:none;stroke-width:1px;stroke-linecap:butt;stroke-linejoin:miter;stroke-opacity:1;font-family:Bitstream Vera Sans"><tspan
       x="65"
       y="85"
       id="tspan3137">C3</tspan></text>
  <rect
     width="5.1111112"
     height="5.1111112"
     x="130"
     y="85"
     id="rect3139"
     style="fill:#000000;fill-opacity:1;stroke:#000000;stroke-width:1;stroke-miterlimit:4;stroke-dasharray:none;stroke-dashoffset:0;stroke-opacity:1" />
  <path
     d="M 280,752.36218 A 5,5 0 1 1 270,752.36218 A 5,5 0 1 1 280,752.36218 z"
     transform="matrix(0.5111107,0,0,0.511108,-88.043063,-272.09387)"
     id="path3141"
     style="fill:#ffffff;fill-opacity:1;stroke:#000000;stroke-width:1.95652843;stroke-miterlimit:4;stroke-dasharray:none;stroke-dashoffset:0;stroke-opacity:1" />
  <path
     d="M 280,752.36218 A 5,5 0 1 1 270,752.36218 A 5,5 0 1 1 280,752.36218 z"
     transform="matrix(0.5111107,0,0,0.511108,-8.110996,-272.04244)"
     id="path3143"
     style="fill:#ffffff;fill-opacity:1;stroke:#000000;stroke-width:1.95652843;stroke-miterlimit:4;stroke-dasharray:none;stroke-dashoffset:0;stroke-opacity:1" />
  <path
     d="M 280,752.36218 A 5,5 0 1 1 270,752.36218 A 5,5 0 1 1 280,752.36218 z"
     transform="matrix(0.5004364,0,0,0.5028861,-5.117838,-330.94879)"
     id="path3145"
     style="fill:#000000;fill-opacity:1;stroke:#000000;stroke-width:1.99338305;stroke-miterlimit:4;stroke-dasharray:none;stroke-dashoffset:0;stroke-opacity:1" />
  <path
     d="M 280,752.36218 A 5,5 0 1 1 270,752.36218 A 5,5 0 1 1 280,752.36218 z"
     transform="matrix(0.5111107,0,0,0.511108,-88.110996,-336.98881)"
     id="path3147"
     style="fill:#ffffff;fill-opacity:1;stroke:#000000;stroke-width:1.95652843;stroke-miterlimit:4;stroke-dasharray:none;stroke-dashoffset:0;stroke-opacity:1" />
  <path
     d="M 280,752.36218 A 5,5 0 1 1 270,752.36218 A 5,5 0 1 1 280,752.36218 z"
     transform="matrix(0.5004364,0,0,0.5028861,-42.62001,-265.86691)"
     id="path3149"
     style="fill:#000000;fill-opacity:1;stroke:#000000;stroke-width:1.99338305;stroke-miterlimit:4;stroke-dasharray:none;stroke-dashoffset:0;stroke-opacity:1" />
  <path
     d="M 280,752.36218 A 5,5 0 1 1 270,752.36218 A 5,5 0 1 1 280,752.36218 z"
     transform="matrix(0.5004364,0,0,0.5028861,-45.202247,-355.83805)"
     id="path3151"
     style="fill:#000000;fill-opacity:1;stroke:#000000;stroke-width:1.99338305;stroke-miterlimit:4;stroke-dasharray:none;stroke-dashoffset:0;stroke-opacity:1" />
  <path
     d="M 280,752.36218 A 5,5 0 1 1 270,752.36218 A 5,5 0 1 1 280,752.36218 z"
     transform="matrix(0.5004364,0,0,0.5028861,34.87781,-355.73735)"
     id="path3153"
     style="fill:#000000;fill-opacity:1;stroke:#000000;stroke-width:1.99338305;stroke-miterlimit:4;stroke-dasharray:none;stroke-dashoffset:0;stroke-opacity:1" />
  <path
     d="M 280,752.36218 A 5,5 0 1 1 270,752.36218 A 5,5 0 1 1 280,752.36218 z"
     transform="matrix(0.5004364,0,0,0.5028861,35.13493,-290.86691)"
     id="path3155"
     style="fill:#000000;fill-opacity:1;stroke:#000000;stroke-width:1.99338305;stroke-miterlimit:4;stroke-dasharray:none;stroke-dashoffset:0;stroke-opacity:1" />
  <rect
     width="5.1111112"
     height="5.1111112"
     x="295.88889"
     y="28"
     id="rect4053"
     style="fill:#000000;fill-opacity:1;stroke:#000000;stroke-width:1;stroke-miterlimit:4;stroke-dasharray:none;stroke-dashoffset:0;stroke-opacity:1" />
  <path
     d="M 293,51 L 303,51"
     id="path4055"
     style="fill:none;fill-rule:evenodd;stroke:#000000;stroke-width:1px;stroke-linecap:butt;stroke-linejoin:miter;stroke-opacity:1" />
  <path
     d="M 280,752.36218 A 5,5 0 1 1 270,752.36218 A 5,5 0 1 1 280,752.36218 z"
     transform="matrix(0.5004364,0,0,0.5028861,160.37999,-286.83805)"
     id="path6422"
     style="fill:#000000;fill-opacity:1;stroke:#000000;stroke-width:1.99338305;stroke-miterlimit:4;stroke-dasharray:none;stroke-dashoffset:0;stroke-opacity:1" />
  <path
     d="M 280,752.36218 A 5,5 0 1 1 270,752.36218 A 5,5 0 1 1 280,752.36218 z"
     transform="matrix(0.5111107,0,0,0.511108,157.44456,-272.98279)"
     id="path6424"
     style="fill:#ffffff;fill-opacity:1;stroke:#000000;stroke-width:1.95652843;stroke-miterlimit:4;stroke-dasharray:none;stroke-dashoffset:0;stroke-opacity:1" />
  <path
     d="M 293,66 L 303,66 L 303,76 L 298,76 L 298,71 L 293,71 L 293,66 z"
     id="path2464"
     style="fill:none;fill-rule:evenodd;stroke:#000000;stroke-width:1px;stroke-linecap:butt;stroke-linejoin:miter;stroke-opacity:1" />
</svg>
